<svg xmlns="http://www.w3.org/2000/svg" x="0px" y="0px"
width="30" height="30"
viewBox="0 0 172 172"
style=" fill:#000000;"><g fill="none" fill-rule="nonzero" stroke="none" stroke-width="1" stroke-linecap="butt" stroke-linejoin="miter" stroke-miterlimit="10" stroke-dasharray="" stroke-dashoffset="0" font-family="none" font-weight="none" font-size="none" text-anchor="none" style="mix-blend-mode: normal"><path d="M0,172v-172h172v172z" fill="none"></path><path d="M0.86,86c0,-47.02152 38.11848,-85.14 85.14,-85.14c47.02152,0 85.14,38.11848 85.14,85.14c0,47.02152 -38.11848,85.14 -85.14,85.14c-47.02152,0 -85.14,-38.11848 -85.14,-85.14zM86,167.7c45.12166,0 81.7,-36.57834 81.7,-81.7c0,-45.12166 -36.57834,-81.7 -81.7,-81.7c-45.12166,0 -81.7,36.57834 -81.7,81.7c0,45.12166 36.57834,81.7 81.7,81.7z" fill="#efeeee"></path><g fill="#3498db"><path d="M142.91789,54.31963c-4.15835,1.84624 -8.62729,3.08857 -13.32053,3.65797c4.77952,-2.88151 8.472,-7.41947 10.19745,-12.8374c-4.48619,2.6572 -9.45551,4.58971 -14.73541,5.62499c-4.22737,-4.50344 -10.24921,-7.31594 -16.92673,-7.31594c-12.80289,0 -23.19015,10.38725 -23.19015,23.19015c0,1.81173 0.20705,3.58895 0.60391,5.2799c-19.27336,-0.96626 -36.35538,-10.21471 -47.79517,-24.24267c-2.00153,3.43366 -3.13033,7.41946 -3.14033,11.68134c0,8.04063 4.08933,15.13226 10.31823,19.29061c-3.81326,-0.12078 -7.38496,-1.15605 -10.50803,-2.89877c0,0.10353 0,0.1898 0,0.29333c0,11.23272 7.98887,20.60196 18.60043,22.74152c-1.94977,0.53489 -3.9858,0.81097 -6.10812,0.81097c-1.50115,0 -2.95053,-0.13804 -4.36541,-0.41411c2.95053,9.19669 11.5088,15.92597 21.65448,16.09851c-7.91985,6.2289 -17.9275,9.92138 -28.79788,9.92138c-1.88075,0 -3.70973,-0.10353 -5.52146,-0.31058c10.24922,6.574 22.4482,10.40451 35.54442,10.40451c42.6533,0 65.98148,-35.33736 65.98148,-65.96423c0,-1.01802 -0.01725,-2.01878 -0.06902,-3.01955c4.53795,-3.24386 8.472,-7.3332 11.57782,-11.99193"></path></g><path d="" fill="none"></path><path d="M86,171.14c-47.02152,0 -85.14,-38.11848 -85.14,-85.14v0c0,-47.02152 38.11848,-85.14 85.14,-85.14h0c47.02152,0 85.14,38.11848 85.14,85.14v0c0,47.02152 -38.11848,85.14 -85.14,85.14z" fill="none"></path><path d="M86,167.7c-45.12166,0 -81.7,-36.57834 -81.7,-81.7v0c0,-45.12166 36.57834,-81.7 81.7,-81.7h0c45.12166,0 81.7,36.57834 81.7,81.7v0c0,45.12166 -36.57834,81.7 -81.7,81.7z" fill="none"></path><path d="M86,171.14c-47.02152,0 -85.14,-38.11848 -85.14,-85.14v0c0,-47.02152 38.11848,-85.14 85.14,-85.14h0c47.02152,0 85.14,38.11848 85.14,85.14v0c0,47.02152 -38.11848,85.14 -85.14,85.14z" fill="none"></path><path d="M86,167.7c-45.12166,0 -81.7,-36.57834 -81.7,-81.7v0c0,-45.12166 36.57834,-81.7 81.7,-81.7h0c45.12166,0 81.7,36.57834 81.7,81.7v0c0,45.12166 -36.57834,81.7 -81.7,81.7z" fill="none"></path><path d="M86,171.14c-47.02152,0 -85.14,-38.11848 -85.14,-85.14v0c0,-47.02152 38.11848,-85.14 85.14,-85.14h0c47.02152,0 85.14,38.11848 85.14,85.14v0c0,47.02152 -38.11848,85.14 -85.14,85.14z" fill="none"></path><path d="M86,167.7c-45.12166,0 -81.7,-36.57834 -81.7,-81.7v0c0,-45.12166 36.57834,-81.7 81.7,-81.7h0c45.12166,0 81.7,36.57834 81.7,81.7v0c0,45.12166 -36.57834,81.7 -81.7,81.7z" fill="none"></path><path d="M86,171.14c-47.02152,0 -85.14,-38.11848 -85.14,-85.14v0c0,-47.02152 38.11848,-85.14 85.14,-85.14h0c47.02152,0 85.14,38.11848 85.14,85.14v0c0,47.02152 -38.11848,85.14 -85.14,85.14z" fill="none"></path><path d="M86,167.7c-45.12166,0 -81.7,-36.57834 -81.7,-81.7v0c0,-45.12166 36.57834,-81.7 81.7,-81.7h0c45.12166,0 81.7,36.57834 81.7,81.7v0c0,45.12166 -36.57834,81.7 -81.7,81.7z" fill="none"></path><path d="M86,171.14c-47.02152,0 -85.14,-38.11848 -85.14,-85.14v0c0,-47.02152 38.11848,-85.14 85.14,-85.14h0c47.02152,0 85.14,38.11848 85.14,85.14v0c0,47.02152 -38.11848,85.14 -85.14,85.14z" fill="none"></path><path d="M86,167.7c-45.12166,0 -81.7,-36.57834 -81.7,-81.7v0c0,-45.12166 36.57834,-81.7 81.7,-81.7h0c45.12166,0 81.7,36.57834 81.7,81.7v0c0,45.12166 -36.57834,81.7 -81.7,81.7z" fill="none"></path><path d="M86,171.14c-47.02152,0 -85.14,-38.11848 -85.14,-85.14v0c0,-47.02152 38.11848,-85.14 85.14,-85.14h0c47.02152,0 85.14,38.11848 85.14,85.14v0c0,47.02152 -38.11848,85.14 -85.14,85.14z" fill="none"></path><path d="M86,167.7c-45.12166,0 -81.7,-36.57834 -81.7,-81.7v0c0,-45.12166 36.57834,-81.7 81.7,-81.7h0c45.12166,0 81.7,36.57834 81.7,81.7v0c0,45.12166 -36.57834,81.7 -81.7,81.7z" fill="none"></path><path d="M86,171.14c-47.02152,0 -85.14,-38.11848 -85.14,-85.14v0c0,-47.02152 38.11848,-85.14 85.14,-85.14h0c47.02152,0 85.14,38.11848 85.14,85.14v0c0,47.02152 -38.11848,85.14 -85.14,85.14z" fill="none"></path><path d="M86,167.7c-45.12166,0 -81.7,-36.57834 -81.7,-81.7v0c0,-45.12166 36.57834,-81.7 81.7,-81.7h0c45.12166,0 81.7,36.57834 81.7,81.7v0c0,45.12166 -36.57834,81.7 -81.7,81.7z" fill="none"></path><path d="M86,171.14c-47.02152,0 -85.14,-38.11848 -85.14,-85.14v0c0,-47.02152 38.11848,-85.14 85.14,-85.14h0c47.02152,0 85.14,38.11848 85.14,85.14v0c0,47.02152 -38.11848,85.14 -85.14,85.14z" fill="none"></path><path d="M86,167.7c-45.12166,0 -81.7,-36.57834 -81.7,-81.7v0c0,-45.12166 36.57834,-81.7 81.7,-81.7h0c45.12166,0 81.7,36.57834 81.7,81.7v0c0,45.12166 -36.57834,81.7 -81.7,81.7z" fill="none"></path><path d="M86,171.14c-47.02152,0 -85.14,-38.11848 -85.14,-85.14v0c0,-47.02152 38.11848,-85.14 85.14,-85.14h0c47.02152,0 85.14,38.11848 85.14,85.14v0c0,47.02152 -38.11848,85.14 -85.14,85.14z" fill="none"></path><path d="M86,167.7c-45.12166,0 -81.7,-36.57834 -81.7,-81.7v0c0,-45.12166 36.57834,-81.7 81.7,-81.7h0c45.12166,0 81.7,36.57834 81.7,81.7v0c0,45.12166 -36.57834,81.7 -81.7,81.7z" fill="none"></path><path d="M86,171.14c-47.02152,0 -85.14,-38.11848 -85.14,-85.14v0c0,-47.02152 38.11848,-85.14 85.14,-85.14h0c47.02152,0 85.14,38.11848 85.14,85.14v0c0,47.02152 -38.11848,85.14 -85.14,85.14z" fill="none"></path><path d="M86,167.7c-45.12166,0 -81.7,-36.57834 -81.7,-81.7v0c0,-45.12166 36.57834,-81.7 81.7,-81.7h0c45.12166,0 81.7,36.57834 81.7,81.7v0c0,45.12166 -36.57834,81.7 -81.7,81.7z" fill="none"></path><path d="M86,171.14c-47.02152,0 -85.14,-38.11848 -85.14,-85.14v0c0,-47.02152 38.11848,-85.14 85.14,-85.14h0c47.02152,0 85.14,38.11848 85.14,85.14v0c0,47.02152 -38.11848,85.14 -85.14,85.14z" fill="none"></path><path d="M86,167.7c-45.12166,0 -81.7,-36.57834 -81.7,-81.7v0c0,-45.12166 36.57834,-81.7 81.7,-81.7h0c45.12166,0 81.7,36.57834 81.7,81.7v0c0,45.12166 -36.57834,81.7 -81.7,81.7z" fill="none"></path><path d="M86,171.14c-47.02152,0 -85.14,-38.11848 -85.14,-85.14v0c0,-47.02152 38.11848,-85.14 85.14,-85.14h0c47.02152,0 85.14,38.11848 85.14,85.14v0c0,47.02152 -38.11848,85.14 -85.14,85.14z" fill="none"></path><path d="M86,167.7c-45.12166,0 -81.7,-36.57834 -81.7,-81.7v0c0,-45.12166 36.57834,-81.7 81.7,-81.7h0c45.12166,0 81.7,36.57834 81.7,81.7v0c0,45.12166 -36.57834,81.7 -81.7,81.7z" fill="none"></path><path d="M86,171.14c-47.02152,0 -85.14,-38.11848 -85.14,-85.14v0c0,-47.02152 38.11848,-85.14 85.14,-85.14h0c47.02152,0 85.14,38.11848 85.14,85.14v0c0,47.02152 -38.11848,85.14 -85.14,85.14z" fill="none"></path><path d="M86,167.7c-45.12166,0 -81.7,-36.57834 -81.7,-81.7v0c0,-45.12166 36.57834,-81.7 81.7,-81.7h0c45.12166,0 81.7,36.57834 81.7,81.7v0c0,45.12166 -36.57834,81.7 -81.7,81.7z" fill="none"></path><path d="M86,171.14c-47.02152,0 -85.14,-38.11848 -85.14,-85.14v0c0,-47.02152 38.11848,-85.14 85.14,-85.14h0c47.02152,0 85.14,38.11848 85.14,85.14v0c0,47.02152 -38.11848,85.14 -85.14,85.14z" fill="none"></path><path d="M86,167.7c-45.12166,0 -81.7,-36.57834 -81.7,-81.7v0c0,-45.12166 36.57834,-81.7 81.7,-81.7h0c45.12166,0 81.7,36.57834 81.7,81.7v0c0,45.12166 -36.57834,81.7 -81.7,81.7z" fill="none"></path><path d="M86,171.14c-47.02152,0 -85.14,-38.11848 -85.14,-85.14v0c0,-47.02152 38.11848,-85.14 85.14,-85.14h0c47.02152,0 85.14,38.11848 85.14,85.14v0c0,47.02152 -38.11848,85.14 -85.14,85.14z" fill="none"></path><path d="M86,167.7c-45.12166,0 -81.7,-36.57834 -81.7,-81.7v0c0,-45.12166 36.57834,-81.7 81.7,-81.7h0c45.12166,0 81.7,36.57834 81.7,81.7v0c0,45.12166 -36.57834,81.7 -81.7,81.7z" fill="none"></path><path d="M86,171.14c-47.02152,0 -85.14,-38.11848 -85.14,-85.14v0c0,-47.02152 38.11848,-85.14 85.14,-85.14h0c47.02152,0 85.14,38.11848 85.14,85.14v0c0,47.02152 -38.11848,85.14 -85.14,85.14z" fill="none"></path><path d="M86,167.7c-45.12166,0 -81.7,-36.57834 -81.7,-81.7v0c0,-45.12166 36.57834,-81.7 81.7,-81.7h0c45.12166,0 81.7,36.57834 81.7,81.7v0c0,45.12166 -36.57834,81.7 -81.7,81.7z" fill="none"></path><path d="M86,171.14c-47.02152,0 -85.14,-38.11848 -85.14,-85.14v0c0,-47.02152 38.11848,-85.14 85.14,-85.14h0c47.02152,0 85.14,38.11848 85.14,85.14v0c0,47.02152 -38.11848,85.14 -85.14,85.14z" fill="none"></path><path d="M86,167.7c-45.12166,0 -81.7,-36.57834 -81.7,-81.7v0c0,-45.12166 36.57834,-81.7 81.7,-81.7h0c45.12166,0 81.7,36.57834 81.7,81.7v0c0,45.12166 -36.57834,81.7 -81.7,81.7z" fill="none"></path><path d="M86,171.14c-47.02152,0 -85.14,-38.11848 -85.14,-85.14v0c0,-47.02152 38.11848,-85.14 85.14,-85.14h0c47.02152,0 85.14,38.11848 85.14,85.14v0c0,47.02152 -38.11848,85.14 -85.14,85.14z" fill="none"></path><path d="M86,167.7c-45.12166,0 -81.7,-36.57834 -81.7,-81.7v0c0,-45.12166 36.57834,-81.7 81.7,-81.7h0c45.12166,0 81.7,36.57834 81.7,81.7v0c0,45.12166 -36.57834,81.7 -81.7,81.7z" fill="none"></path><path d="M86,171.14c-47.02152,0 -85.14,-38.11848 -85.14,-85.14v0c0,-47.02152 38.11848,-85.14 85.14,-85.14h0c47.02152,0 85.14,38.11848 85.14,85.14v0c0,47.02152 -38.11848,85.14 -85.14,85.14z" fill="none"></path><path d="M86,167.7c-45.12166,0 -81.7,-36.57834 -81.7,-81.7v0c0,-45.12166 36.57834,-81.7 81.7,-81.7h0c45.12166,0 81.7,36.57834 81.7,81.7v0c0,45.12166 -36.57834,81.7 -81.7,81.7z" fill="none"></path><path d="M86,171.14c-47.02152,0 -85.14,-38.11848 -85.14,-85.14v0c0,-47.02152 38.11848,-85.14 85.14,-85.14h0c47.02152,0 85.14,38.11848 85.14,85.14v0c0,47.02152 -38.11848,85.14 -85.14,85.14z" fill="none"></path><path d="M86,167.7c-45.12166,0 -81.7,-36.57834 -81.7,-81.7v0c0,-45.12166 36.57834,-81.7 81.7,-81.7h0c45.12166,0 81.7,36.57834 81.7,81.7v0c0,45.12166 -36.57834,81.7 -81.7,81.7z" fill="none"></path><path d="M86,171.14c-47.02152,0 -85.14,-38.11848 -85.14,-85.14v0c0,-47.02152 38.11848,-85.14 85.14,-85.14h0c47.02152,0 85.14,38.11848 85.14,85.14v0c0,47.02152 -38.11848,85.14 -85.14,85.14z" fill="none"></path><path d="M86,167.7c-45.12166,0 -81.7,-36.57834 -81.7,-81.7v0c0,-45.12166 36.57834,-81.7 81.7,-81.7h0c45.12166,0 81.7,36.57834 81.7,81.7v0c0,45.12166 -36.57834,81.7 -81.7,81.7z" fill="none"></path><path d="M86,171.14c-47.02152,0 -85.14,-38.11848 -85.14,-85.14v0c0,-47.02152 38.11848,-85.14 85.14,-85.14h0c47.02152,0 85.14,38.11848 85.14,85.14v0c0,47.02152 -38.11848,85.14 -85.14,85.14z" fill="none"></path><path d="M86,167.7c-45.12166,0 -81.7,-36.57834 -81.7,-81.7v0c0,-45.12166 36.57834,-81.7 81.7,-81.7h0c45.12166,0 81.7,36.57834 81.7,81.7v0c0,45.12166 -36.57834,81.7 -81.7,81.7z" fill="none"></path><path d="M86,171.14c-47.02152,0 -85.14,-38.11848 -85.14,-85.14v0c0,-47.02152 38.11848,-85.14 85.14,-85.14h0c47.02152,0 85.14,38.11848 85.14,85.14v0c0,47.02152 -38.11848,85.14 -85.14,85.14z" fill="none"></path><path d="M86,167.7c-45.12166,0 -81.7,-36.57834 -81.7,-81.7v0c0,-45.12166 36.57834,-81.7 81.7,-81.7h0c45.12166,0 81.7,36.57834 81.7,81.7v0c0,45.12166 -36.57834,81.7 -81.7,81.7z" fill="none"></path><path d="M86,171.14c-47.02152,0 -85.14,-38.11848 -85.14,-85.14v0c0,-47.02152 38.11848,-85.14 85.14,-85.14h0c47.02152,0 85.14,38.11848 85.14,85.14v0c0,47.02152 -38.11848,85.14 -85.14,85.14z" fill="none"></path><path d="M86,167.7c-45.12166,0 -81.7,-36.57834 -81.7,-81.7v0c0,-45.12166 36.57834,-81.7 81.7,-81.7h0c45.12166,0 81.7,36.57834 81.7,81.7v0c0,45.12166 -36.57834,81.7 -81.7,81.7z" fill="none"></path><path d="M86,171.14c-47.02152,0 -85.14,-38.11848 -85.14,-85.14v0c0,-47.02152 38.11848,-85.14 85.14,-85.14h0c47.02152,0 85.14,38.11848 85.14,85.14v0c0,47.02152 -38.11848,85.14 -85.14,85.14z" fill="none"></path><path d="M86,167.7c-45.12166,0 -81.7,-36.57834 -81.7,-81.7v0c0,-45.12166 36.57834,-81.7 81.7,-81.7h0c45.12166,0 81.7,36.57834 81.7,81.7v0c0,45.12166 -36.57834,81.7 -81.7,81.7z" fill="none"></path><path d="M86,171.14c-47.02152,0 -85.14,-38.11848 -85.14,-85.14v0c0,-47.02152 38.11848,-85.14 85.14,-85.14h0c47.02152,0 85.14,38.11848 85.14,85.14v0c0,47.02152 -38.11848,85.14 -85.14,85.14z" fill="none"></path><path d="M86,167.7c-45.12166,0 -81.7,-36.57834 -81.7,-81.7v0c0,-45.12166 36.57834,-81.7 81.7,-81.7h0c45.12166,0 81.7,36.57834 81.7,81.7v0c0,45.12166 -36.57834,81.7 -81.7,81.7z" fill="none"></path><path d="M86,171.14c-47.02152,0 -85.14,-38.11848 -85.14,-85.14v0c0,-47.02152 38.11848,-85.14 85.14,-85.14h0c47.02152,0 85.14,38.11848 85.14,85.14v0c0,47.02152 -38.11848,85.14 -85.14,85.14z" fill="none"></path><path d="M86,167.7c-45.12166,0 -81.7,-36.57834 -81.7,-81.7v0c0,-45.12166 36.57834,-81.7 81.7,-81.7h0c45.12166,0 81.7,36.57834 81.7,81.7v0c0,45.12166 -36.57834,81.7 -81.7,81.7z" fill="none"></path><path d="M86,171.14c-47.02152,0 -85.14,-38.11848 -85.14,-85.14v0c0,-47.02152 38.11848,-85.14 85.14,-85.14h0c47.02152,0 85.14,38.11848 85.14,85.14v0c0,47.02152 -38.11848,85.14 -85.14,85.14z" fill="none"></path><path d="M86,167.7c-45.12166,0 -81.7,-36.57834 -81.7,-81.7v0c0,-45.12166 36.57834,-81.7 81.7,-81.7h0c45.12166,0 81.7,36.57834 81.7,81.7v0c0,45.12166 -36.57834,81.7 -81.7,81.7z" fill="none"></path><path d="M86,171.14c-47.02152,0 -85.14,-38.11848 -85.14,-85.14v0c0,-47.02152 38.11848,-85.14 85.14,-85.14h0c47.02152,0 85.14,38.11848 85.14,85.14v0c0,47.02152 -38.11848,85.14 -85.14,85.14z" fill="none"></path><path d="M86,167.7c-45.12166,0 -81.7,-36.57834 -81.7,-81.7v0c0,-45.12166 36.57834,-81.7 81.7,-81.7h0c45.12166,0 81.7,36.57834 81.7,81.7v0c0,45.12166 -36.57834,81.7 -81.7,81.7z" fill="none"></path></g></svg>